@startuml
interface Command {
    + execute(): void
}

class ConcreteCommand implements Command {
    - receiver: Receiver
    + execute(): void
}

class Receiver {
    + action(): void
}

class Invoker {
    - command: Command
    + setCommand(command: Command): void
    + executeCommand(): void
}
Invoker --> Command
ConcreteCommand --> Receiver
@enduml
