@startuml
interface Strategy {
    + execute(): void
}

class ConcreteStrategyA implements Strategy {
    + execute(): void
}

class ConcreteStrategyB implements Strategy {
    + execute(): void
}

class Context {
    - strategy: Strategy
    + setStrategy(strategy: Strategy): void
    + executeStrategy(): void
}
Context --> Strategy
ConcreteStrategyA --> Context
ConcreteStrategyB --> Context
@enduml
